<?xml version="1.0" encoding="UTF-8"?>
<svg id="Layer_2" xmlns="http://www.w3.org/2000/svg" viewBox="0 0 12.95 12.44">
  <g id="Layer_1-2" data-name="Layer_1">
    <g>
      <path d="M12.95,9.86c-.01-1.73-.02-3.69-.35-5.62-.14-.85-.28-1.09-1.2-1.27-.25-.05-.5-.16-.69-.31-.52-.41-1.05-.84-1.56-1.25-.4-.32-.8-.65-1.2-.97-.69-.55-1.44-.59-2.15-.13l-.25.16c-.75.49-1.53,1-2.24,1.58-.59.49-1.15.95-1.92,1.11C.52,3.36.05,3.96.03,4.93c0,.11,0,.21-.01.32,0,.16-.02.31-.02.47v1.22c.02,1.19.03,2.42.07,3.62.04,1.21.47,1.65,1.71,1.71.88.04,1.76.08,2.64.12l1.2.05v-.08c.31,0,.61,0,.92,0,.79,0,1.61.02,2.42-.02.83-.04,1.73-.15,2.84-.34.82-.14,1.1-.47,1.14-1.36,0-.2,0-.39,0-.59v-.2ZM11.09,11.29l-.15.03c-.22.05-.45.1-.67.1-2.43.06-4.43.09-6.29.12-.79,0-1.57-.02-2.24-.05-.73-.03-.89-.18-.92-.84-.08-1.8-.15-3.57-.16-5.34,0-1.26.27-1.57,1.53-1.73,1.15-.15,2.31-.21,3.45-.21s2.31.06,3.42.13c.63.04,1.28.13,1.9.21l.32.04c.12.02.23.06.37.1.04.02.09.03.14.05.03.34.06.68.1,1.02.08.83.16,1.68.21,2.52.03.56.02,1.14.02,1.69,0,.3,0,.59,0,.9q0,1.06-1,1.26ZM3.56,2.71c.04-.05.09-.1.14-.13l.1-.06c.8-.5,1.64-1.02,2.48-1.49.2-.11.53-.19.69-.11.88.42,1.74.98,2.76,1.8H3.56Z"/>
      <path d="M3.15,6.22c.1,0,.2.01.3.01.02,0,.04,0,.06,0,.5-.01,1-.02,1.5-.03.76-.02,1.53-.04,2.29-.05.3,0,.6,0,.9,0,.29,0,.57,0,.85,0,.13,0,.25-.03.36-.05.05-.01.09-.02.14-.03l.17-.03-.2-.31-.53-.13-.83-.04c-1.81-.09-3.3-.09-4.65.15-.16.03-.3.07-.45.1-.07.02-.13.03-.2.05l-.18.04.25.32h.21Z"/>
      <path d="M9.11,6.99l-.28-.02c-.18,0-.37-.02-.55-.02-1.82-.09-3.3-.09-4.65.15-.16.03-.31.07-.45.1-.07.02-.13.03-.2.05l-.18.04.25.32h.21c.1.02.2.02.3.02.02,0,.04,0,.05,0,.49-.01.99-.02,1.48-.03.77-.02,1.54-.04,2.31-.05.3,0,.6,0,.9,0,.29,0,.57,0,.85,0,.13,0,.25-.03.36-.05.05-.01.1-.02.14-.03l.18-.03-.2-.31-.53-.13Z"/>
      <path d="M9.11,8.34h0s-.2-.01-.2-.01c-.21,0-.42-.02-.62-.03-1.81-.09-3.3-.09-4.65.15-.16.03-.31.07-.45.1-.07.02-.13.03-.2.05l-.18.04.25.32h.21c.1.02.2.02.3.02.02,0,.03,0,.05,0,.49-.01.99-.02,1.48-.03.77-.02,1.54-.04,2.31-.05.3,0,.61,0,.91,0,.28,0,.56,0,.84,0,.13,0,.25-.03.36-.05.05-.01.09-.02.14-.03l.18-.03-.2-.31-.53-.13Z"/>
      <path d="M9.91,4.03c-.45,0-.9-.01-1.35-.02-1.35-.02-2.76-.04-4.14-.02-.63,0-1.25.08-1.91.16-.3.03-.6.07-.91.1h-.1s0,.11,0,.11c-.13,1.48-.04,2.88.05,4.24.03.4.05.8.07,1.21.03.57.49.69.83.73,1.32.15,2.64.22,3.94.22s2.69-.08,4-.24c.7-.08.9-.31.89-1.03-.03-1.44-.08-2.87-.13-4.25-.04-1.03-.2-1.18-1.23-1.2ZM10.39,9.7c-2.71.57-5.56.34-8.08.13l-.04-.35c-.17-1.58-.33-3.08-.27-4.64,1.84-.33,3.66-.24,5.43-.15.9.05,1.83.09,2.76.08.25.75.35,3.26.2,4.93Z"/>
    </g>
  </g>
</svg>