<?xml version="1.0" encoding="UTF-8"?>
<svg id="Layer_2" xmlns="http://www.w3.org/2000/svg" viewBox="0 0 8.36 14.57">
  <g id="Layer_1-2" data-name="Layer_1">
    <g>
      <path d="M4.35,8.7c-.11-.02-.23-.03-.34-.04h-.05v-.58c.09-.01.18,0,.3.03.21.04.47.1.76-.09l.2-.13-1.26-.54c-.02-.1-.02-.2-.02-.31,0-.22,0-.47-.19-.71l-.09-.1-.1.09c-.21.2-.24.45-.27.67-.02.14-.03.27-.1.38-.43.09-1.16.28-1.17,1.16,0,.62.35.88,1.02,1.11l.04.81c-.16.05-.3,0-.49-.1-.22-.1-.46-.22-.76-.07l-.12.06.07.12c.29.47.74.6,1.14.71.08.02.16.04.23.07.02.03.03.09.04.15.02.16.06.43.44.43h.1s.14-.58.14-.58c.08-.03.17-.05.25-.08.21-.06.42-.13.6-.22.5-.25.75-.8.65-1.38-.09-.5-.41-.77-1.01-.86ZM3.95,9.65c.28-.05.45-.04.53.01.03.02.06.06.08.16.02.1,0,.2-.06.28-.1.13-.29.23-.55.29v-.75ZM3.11,8.18l-.05.57s-.02-.02-.03-.03c-.09-.08-.17-.15-.17-.2-.02-.12,0-.24.26-.35Z"/>
      <path d="M8.29.42c-.07-.07-.2-.07-.28-.03-.07.04-.13.1-.19.15l-.03.03c-.49.43-.91.62-1.39.59-.12,0-.25,0-.27-.01-.01-.04.04-.22.07-.31.05-.16.16-.31.35-.44.06-.04.08-.11.09-.16,0-.01,0-.03.01-.04l.06-.15-.16-.02s-.03,0-.04,0c-.05-.01-.11-.02-.18,0-.09.03-.16.08-.23.14-.26.2-.42.48-.47.84h-.03c-.75-.19-1.38.02-1.88.64-.07.09-.11.1-.19.08-.09-.02-.2.02-.26.07-1.19.91-2.16,1.81-2.98,2.77-.15.17-.21.33-.21.54,0,.52-.03,1.05-.04,1.57-.02.51-.03,1.02-.04,1.53-.03,1.64.02,3.26.15,4.84.03.4.08.79.13,1.09.01.09.11.25.24.26l.28.03c.57.06,1.17.11,1.75.14.36.02.72.03,1.09.03.96,0,1.95-.06,2.94-.19.34-.04.43-.1.44-.47l.03-.63c.03-.6.05-1.21.06-1.82,0-1.44,0-2.96-.02-4.95,0-.29-.02-.59-.04-.88-.02-.26-.03-.52-.04-.79,0-.22-.07-.38-.22-.52-.28-.26-.56-.53-.84-.79l-.53-.5c-.06-.06-.12-.11-.19-.16.39-.31.74-.68.86-1.21.03,0,.06,0,.08,0,.15.01.28.02.43.01.58-.05,1.1-.32,1.63-.85.06-.06.09-.11.1-.17.02-.07.01-.18-.05-.24ZM5.32,1.46l.08.02c.13.03.21.05.22.06,0,.02-.02.1-.08.23-.1.24-.4.58-.68.78l-.7-.54c.19-.36.74-.63,1.16-.56ZM4.07,13.82c.81,0,1.52-.05,1.65-.18l.23-.23-.33.02c-1.31.09-2.65.08-4.08-.04l-.81-.07c-.22-2.39-.19-4.81-.15-7.16v-.75c.02-.3.1-.51.32-.73.91-.94,1.66-1.64,2.42-2.24-.04.14-.07.28-.11.42,0,0-.02.03-.03.04-.32.22-.43.54-.33.89.1.33.43.57.78.57h.01c.33,0,.66-.27.74-.61,0,0,0-.02,0-.02l.11.14c.11.13.93.98,1.13.98,0,0,0,0,0,0h.18s-.07-.18-.07-.18c-.09-.2-.9-1-1.15-1,0,0,0,0-.01,0l-.19.02c.05-.32-.1-.66-.39-.82-.05-.03-.11-.05-.17-.08l.07-.26c.08.06.15.11.22.17.8.62,1.52,1.3,2.35,2.14.02.02.04.08.04.15.01.41.02.82.03,1.23.03,1.21.07,2.46.07,3.69,0,.85-.03,1.72-.05,2.55-.01.44-.03.88-.04,1.33,0,.02,0,.03,0,.03,0,0-.02,0-.03,0-1.35.17-2.73.23-4.1.16-.32-.02-.65-.04-.97-.07-.2-.02-.39-.03-.59-.04-.04,0-.05,0-.06,0,0,0,0-.01-.01-.06-.02-.16-.02-.33-.04-.49l.76.3c.24.1,1.5.18,2.59.18ZM3.66,3.85c-.17.06-.27-.06-.32-.14-.05-.09-.06-.18-.02-.26.17.2.32.26.53.21-.03.09-.09.16-.2.19ZM5.76,1.12h0s0,0,0,0h0Z"/>
    </g>
  </g>
</svg>