<?xml version="1.0" encoding="UTF-8"?>
<svg id="Layer_2" xmlns="http://www.w3.org/2000/svg" viewBox="0 0 13.61 14.2">
  <g id="Layer_1-2" data-name="Layer_1">
    <g>
      <path d="M13.56,10.11c-.19-.65-.57-1.19-.94-1.72l-.17-.25c-.07-.1-.17-.17-.28-.18-.09,0-.18.03-.24.1-.1.11-.09.3-.08.4.01.08.06.15.1.2.02.02.03.04.04.06l.14.24c.15.25.29.51.43.77.05.1.09.21.14.33l.03.07s-.04.03-.05.04c-.07.06-.14.1-.2.14-.12.06-.23.13-.35.19-.34.19-.69.38-1.04.53-.46.2-.93.37-1.39.54-.19.07-.37.14-.56.21-.15.06-.27.03-.39-.07l-1.13-1.03.26-.16c.28-.17.55-.34.82-.51,1.02-.66,2.03-1.33,3.04-2.01.05-.03.21-.15.23-.3.01-.1-.02-.17-.05-.21-.06-.07-.15-.11-.29-.13-.02,0-.05-.02-.06-.03-.27-.35-.65-.47-1.01-.59-.07-.02-.13-.04-.19-.07-.12-.05-.33-.03-.43.07-.06.06-.1.14-.1.22,0,.1.05.21.14.3.18.18.36.35.57.55l.11.11-.8.45c-.92.51-1.85,1.03-2.77,1.55-.19.11-.33.1-.55-.02-.67-.39-1.33-.77-2-1.15l-1.08-.62c-.16-.09-.31-.19-.47-.28l-.05-.03.13-.1c.26-.2.52-.39.76-.59.09-.07.19-.31.1-.42-.07-.09-.25-.21-.4-.17-.83.19-1.47.54-1.95,1.07-.07.08-.11.22-.08.33,0,.01,0,.02.01.03-.13-.01-.26.05-.35.19l-.18.26c-.32.47-.66.95-.85,1.5-.21.58-.16.69.37,1,.27.16.53.32.78.47l.19.12c0,.12-.02.24-.03.36-.03.31-.06.59-.05.88.02.37.1.74.18,1.1v.06c.05.14.25.25.37.26,0,0,.01,0,.02,0,.16,0,.28-.24.29-.27.04-.08.04-.16.03-.23,0-.02,0-.05,0-.07l.1-1.59c.08.04.17.08.25.12.13.06.26.11.39.17.32.14.66.29,1,.41.65.22,1.23.1,1.68-.34l.14-.14c.12-.12.24-.25.37-.36.15-.14.31-.27.48-.41l.14-.12c.09.08.18.17.27.25.25.22.49.44.7.67.53.57,1.18.72,1.93.42.32-.13.64-.27.95-.42.15-.07.31-.14.46-.21.03-.01.06-.03.09-.04l.03.28c.05.45.1.88.15,1.32.04.34.24.4.39.39.13-.01.3-.09.33-.38.01-.1.03-.2.04-.31.03-.24.07-.48.07-.73,0-.27-.03-.53-.06-.81,0-.1-.02-.19-.03-.29l.29-.17c.27-.16.54-.32.81-.48.34-.21.4-.35.29-.74ZM1.72,8.6c.11-.19.1-.33.04-.43,0,0,.02,0,.03,0,.27-.07.46.07.68.23.05.04.1.07.15.1,1.02.66,2.03,1.33,3.05,2l.34.22-.15.14c-.2.18-.39.37-.58.55-.07.07-.14.13-.19.18q-.37.35-1.11.11c-.96-.32-1.85-.8-2.84-1.34-.06-.04-.13-.08-.2-.14-.02-.01-.03-.02-.05-.04.02-.04.03-.08.05-.12.06-.15.11-.29.18-.41.13-.24.27-.47.41-.7.06-.11.13-.22.19-.33Z"/>
      <path d="M5.49,3.59c-.15.02-.22.09-.25.15-.03.05-.05.14.02.27.05.08.11.16.17.21.11.11.23.23.35.34l.1.1-.04.13c-.02.05-.03.11-.05.16-.04.12-.08.25-.11.39-.05.26.03.4.1.46.08.07.22.14.47.07.03,0,.07-.02.1-.03,0,0,0,0,0,0-.22.72-.34,1.48-.36,2.34v.04s-.01.1,0,.15c0,.03.06.17.18.2.07.02.12,0,.15-.03.07-.05.09-.14.09-.19l.04-.25c.02-.17.05-.34.08-.5.04-.22.08-.45.12-.67.07-.42.15-.84.21-1.26.02-.13.06-.2.15-.24,0,0,0,.03,0,.06-.02.15-.03.29-.05.44-.02.16-.03.33-.05.49-.08.61-.08,1.25,0,1.97,0,.05,0,.1.03.15.03.06.1.15.2.15h0c.09,0,.18-.07.21-.15.02-.06.02-.11.02-.16l.02-.4c.01-.24.02-.48.03-.72.02-.5.04-.99.05-1.49,0-.01,0-.02,0-.03.01,0,.03.01.04.02.1.05.2.1.31.12.18.04.31.01.41-.07.09-.09.13-.22.11-.4-.03-.2-.07-.37-.14-.51-.09-.19-.07-.3.1-.42.15-.11.27-.26.37-.4.11-.15.1-.27.07-.33-.03-.07-.11-.16-.3-.18-.26-.03-.51-.05-.77-.07-.07,0-.08-.02-.09-.06,0-.04-.02-.07-.04-.1-.02-.05-.04-.1-.07-.15-.08-.18-.16-.36-.31-.51-.05-.05-.14-.11-.24-.12-.12,0-.2.11-.22.14-.03.04-.06.09-.1.16l-.08.15c-.08.14-.16.27-.22.42-.04.08-.08.11-.19.12-.2.01-.4.04-.6.06h-.04ZM7.74,4.27c-.16.13-.21.29-.14.47.06.15.1.3.15.46,0,.02,0,.04.01.05-.16-.1-.32-.21-.48-.31l-.05-.03c-.09-.06-.16-.09-.23-.09-.07,0-.14.04-.23.1-.16.11-.31.21-.48.31.03-.15.06-.3.11-.44.06-.21.01-.37-.17-.5-.1-.08-.2-.17-.31-.26.13-.02.26-.04.39-.05.16-.01.27-.09.35-.23.09-.18.19-.36.29-.54l.04-.08s0,.02.01.03c.08.17.15.33.21.5.06.17.17.26.35.27.11.01.23.03.34.04.05,0,.1.01.16.02-.11.1-.21.2-.33.29Z"/>
      <path d="M9.89,3.39s.02,0,.04,0c.15-.03.31-.07.48-.13.36-.12.71-.25,1.08-.38l.45-.16v-.08c.02-.09,0-.17-.04-.23-.07-.08-.17-.1-.25-.11-.78-.06-1.4.3-1.9.66-.06.04-.1.13-.1.19v.08s.03.04.03.04c.04.04.13.12.22.12Z"/>
      <path d="M8.23,1.88c.06,0,.12,0,.18-.04.49-.25.84-.63,1.16-1,.05-.06.05-.14.05-.2,0-.02,0-.03,0-.05l.02-.14h-.14s-.03,0-.05-.01c-.06-.01-.15-.02-.21.03l-.11.07c-.23.16-.48.32-.69.52-.16.15-.34.34-.44.68l-.05.18.19-.03s.07,0,.1,0Z"/>
      <path d="M9.42,4.87c-.07,0-.12.05-.16.08-.01,0-.02.02-.03.02l-.11.07.07.11s.01.02.02.04c.02.04.05.1.11.13.1.06.2.12.31.18.06.03.13.07.19.11.08.05.16.1.24.14.15.09.3.18.46.26.04.02.1.03.15.03s.11-.01.15-.03c.09-.04.1-.14.1-.22v-.04s-.01-.03-.01-.03c-.23-.49-.96-.9-1.49-.85Z"/>
      <path d="M2.82,5.42s.02,0,.03,0c.06,0,.13,0,.19,0,.12,0,.24,0,.36-.02.26-.04.51-.11.77-.18.07-.02.12-.08.16-.12.01-.01.02-.03.03-.04l.11-.11-.13-.09s-.03-.02-.04-.04c-.05-.04-.1-.09-.18-.1-.16-.03-.32-.04-.47-.04-.39,0-.75.11-1.06.3l-.06.04v.07c0,.11.02.18.08.24.06.06.15.07.21.07Z"/>
      <path d="M3.55,2.5c.14.07.28.12.43.17.02,0,.05.01.08.01.06,0,.13-.02.18-.06.06-.05.06-.13.06-.18v-.04s-.01-.04-.01-.04c-.2-.38-.98-.82-1.38-.77-.09,0-.24.1-.24.22,0,.09.06.21.15.26.24.14.48.28.73.41Z"/>
      <path d="M5.26.75c.13.2.29.39.44.57.04.05.13.08.2.08.04,0,.08,0,.11-.02.1-.05.12-.2.1-.29-.02-.1-.06-.2-.09-.3v-.03s.04-.04.04-.04l-.2-.25c-.11-.13-.22-.27-.33-.4-.07-.08-.23-.1-.31-.04-.09.06-.12.19-.1.28v.04c.04.12.07.27.15.39Z"/>
    </g>
  </g>
</svg>