<?xml version="1.0" encoding="UTF-8"?>
<svg id="Layer_2" xmlns="http://www.w3.org/2000/svg" viewBox="0 0 12.7 12.18">
  <g id="Layer_1-2" data-name="Layer_1">
    <g>
      <path d="M5.37,12.18c-1.24-.05-2.48-.1-3.71-.17-1.16-.06-1.56-.43-1.59-1.59C.02,8.81.02,7.2,0,5.58c0-.26.02-.52.03-.78.02-.85.4-1.46,1.25-1.64.8-.17,1.37-.64,1.98-1.14.78-.64,1.63-1.18,2.48-1.73.68-.44,1.37-.38,2.01.12.93.73,1.83,1.49,2.76,2.22.21.16.48.28.75.34.84.16.96.34,1.1,1.16.32,1.86.34,3.73.35,5.6,0,.26.01.52,0,.78-.04.81-.25,1.11-1.04,1.25-.94.16-1.88.29-2.83.33-1.15.06-2.31.01-3.46.01,0,.02,0,.05,0,.07ZM11.77,3.68c-.23-.07-.42-.16-.61-.18-.74-.1-1.48-.2-2.23-.25-2.3-.15-4.6-.22-6.89.08-1.32.17-1.65.53-1.64,1.86,0,1.78.08,3.56.16,5.34.03.75.25.92,1.04.96.75.04,1.5.06,2.24.05,2.1-.03,4.2-.07,6.3-.12.28,0,.57-.08.85-.14,1.11-.22,1.11-.23,1.1-1.4,0-.86.04-1.73-.01-2.59-.07-1.2-.2-2.4-.31-3.62ZM9.95,2.71c-1.01-.83-1.98-1.52-3.06-2.03-.21-.1-.58-.01-.8.11-.88.49-1.73,1.03-2.58,1.56-.14.09-.23.25-.34.36h6.78Z"/>
      <path d="M9.29,5.68s-.03,0-.03,0c.17.04.35.09.52.13.03.04.05.09.08.13-.17.03-.32.08-.51.08-.61,0-1.24-.01-1.85,0-1.34.02-2.67.06-4,.09-.17,0-.35-.01-.53-.02-.04-.05-.07-.09-.11-.14.23-.05.44-.12.68-.16,1.49-.26,3.17-.23,4.88-.15.29.01.58.03.88.04Z"/>
      <path d="M9.41,7.15s-.03,0-.03,0c.17.04.35.09.52.13.03.04.05.09.08.13-.17.03-.32.08-.51.08-.61,0-1.24-.01-1.85,0-1.34.02-2.67.06-4,.09-.17,0-.35-.01-.53-.02-.04-.05-.07-.09-.11-.14.23-.05.44-.12.68-.16,1.49-.26,3.17-.23,4.88-.15.29.01.58.03.88.04Z"/>
      <path d="M9.41,8.58s-.03,0-.03,0c.17.04.35.09.52.13.03.04.05.09.08.13-.17.03-.32.08-.51.08-.61,0-1.24-.01-1.85,0-1.34.02-2.67.06-4,.09-.17,0-.35-.01-.53-.02-.04-.05-.07-.09-.11-.14.23-.05.44-.12.68-.16,1.49-.26,3.17-.23,4.88-.15.29.01.58.03.88.04Z"/>
      <path d="M1.49,4.26c1.04-.1,2-.26,2.97-.27,1.93-.03,3.86.02,5.79.05,1.01.01,1.14.13,1.18,1.14.06,1.5.1,2.99.14,4.49.02.69-.14.87-.83.96-2.79.33-5.57.33-8.36.02-.42-.05-.74-.19-.76-.65-.09-1.86-.3-3.73-.13-5.74ZM1.79,4.66c-.08,1.86.14,3.65.33,5.49,2.98.25,5.89.47,8.76-.16.17-1.82.05-4.72-.25-5.43-2.9.05-5.82-.47-8.85.09Z"/>
    </g>
  </g>
</svg>